<svg width="315" height="353" viewBox="0 0 315 353" fill="none" xmlns="http://www.w3.org/2000/svg">
<path fill-rule="evenodd" clip-rule="evenodd" d="M31.8833 78.1318C23.8241 78.1318 17.3007 84.6552 17.3007 92.7144C17.3007 100.774 23.8241 107.297 31.8833 107.297C39.9425 107.297 46.4659 100.774 46.4659 92.7144C46.4659 84.6552 39.9425 78.1318 31.8833 78.1318ZM59.5671 66.4847C60.369 68.2107 61.0077 70.1405 61.497 72.2335C62.6114 75.7262 60.967 76.4601 57.1616 75.0331C54.362 73.3615 51.5623 71.6763 48.7627 70.0046C47.3357 68.9989 46.6562 68.0068 46.8872 67.0283C47.3493 65.0985 51.0731 64.0928 54.1309 63.4948C58.0178 62.7201 57.746 62.5571 59.5671 66.4847ZM134.573 85.9327C130.836 85.9327 127.791 88.9634 127.791 92.7144C127.791 96.4517 130.822 99.496 134.573 99.496C138.31 99.496 141.355 96.4653 141.355 92.7144C141.355 88.9634 138.324 85.9327 134.573 85.9327ZM31.8833 85.9327C28.1459 85.9327 25.1016 88.9634 25.1016 92.7144C25.1016 96.4517 28.1323 99.496 31.8833 99.496C35.6207 99.496 38.665 96.4653 38.665 92.7144C38.665 88.9634 35.6343 85.9327 31.8833 85.9327ZM104.293 76.6776C100.529 72.6412 96.1799 70.0182 91.1514 67.4904C80.1431 61.9455 73.4023 62.625 61.7144 62.625L65.6421 72.8179C67.2865 74.9924 69.1484 76.5281 71.9753 76.6776H104.293ZM134.573 78.1318C126.514 78.1318 119.99 84.6552 119.99 92.7144C119.99 100.774 126.514 107.297 134.573 107.297C142.632 107.297 149.156 100.774 149.156 92.7144C149.156 84.6552 142.632 78.1318 134.573 78.1318ZM111.524 73.6877C106.74 70.7113 101.535 68.0476 95.7722 65.778C78.2269 58.8604 64.8131 57.6237 46.4115 63.1958C40.8666 65.3023 35.3217 67.4089 29.7768 68.7135C24.2998 70.0182 0.5844 71.2686 8.61555e-06 75.2506L5.85751 82.2497C3.7238 84.098 1.98422 86.3676 1.34546 89.9147C1.52214 92.1028 2.12013 93.9375 3.153 95.4053C4.90618 97.9195 10.0434 100.515 12.8158 99.0339C13.6992 98.5583 14.2021 97.6069 14.1885 95.9897C14.1069 63.5084 53.3155 67.205 50.3664 99.8222H118.781C106.115 67.1506 160.15 67.0283 150.556 98.6942C153.926 102.336 161.876 96.8459 167 85.1716C165.6 83.7854 164.064 82.4671 162.352 81.244C162.434 81.176 162.271 81.5022 162.556 81.0129C162.841 80.5237 161.863 78.4715 159.851 77.2891C149.305 71.1055 123.877 71.2686 111.524 73.6877Z" fill="white" fill-opacity="0.1"/>
<path fill-rule="evenodd" clip-rule="evenodd" d="M179.883 164.132C171.824 164.132 165.301 170.655 165.301 178.714C165.301 186.774 171.824 193.297 179.883 193.297C187.942 193.297 194.466 186.774 194.466 178.714C194.466 170.655 187.942 164.132 179.883 164.132ZM207.567 152.485C208.369 154.211 209.008 156.141 209.497 158.233C210.611 161.726 208.967 162.46 205.162 161.033C202.362 159.361 199.562 157.676 196.763 156.005C195.336 154.999 194.656 154.007 194.887 153.028C195.349 151.098 199.073 150.093 202.131 149.495C206.018 148.72 205.746 148.557 207.567 152.485ZM282.573 171.933C278.836 171.933 275.791 174.963 275.791 178.714C275.791 182.452 278.822 185.496 282.573 185.496C286.31 185.496 289.355 182.465 289.355 178.714C289.355 174.963 286.324 171.933 282.573 171.933ZM179.883 171.933C176.146 171.933 173.102 174.963 173.102 178.714C173.102 182.452 176.132 185.496 179.883 185.496C183.621 185.496 186.665 182.465 186.665 178.714C186.665 174.963 183.634 171.933 179.883 171.933ZM252.293 162.678C248.529 158.641 244.18 156.018 239.151 153.49C228.143 147.945 221.402 148.625 209.714 148.625L213.642 158.818C215.287 160.992 217.148 162.528 219.975 162.678H252.293ZM282.573 164.132C274.514 164.132 267.99 170.655 267.99 178.714C267.99 186.774 274.514 193.297 282.573 193.297C290.632 193.297 297.156 186.774 297.156 178.714C297.156 170.655 290.632 164.132 282.573 164.132ZM259.524 159.688C254.74 156.711 249.535 154.048 243.772 151.778C226.227 144.86 212.813 143.624 194.412 149.196C188.867 151.302 183.322 153.409 177.777 154.714C172.3 156.018 148.584 157.269 148 161.251L153.858 168.25C151.724 170.098 149.984 172.368 149.345 175.915C149.522 178.103 150.12 179.938 151.153 181.405C152.906 183.92 158.043 186.515 160.816 185.034C161.699 184.558 162.202 183.607 162.188 181.99C162.107 149.508 201.316 153.205 198.366 185.822H266.781C254.115 153.151 308.15 153.028 298.556 184.694C301.926 188.336 309.876 182.846 315 171.172C313.6 169.785 312.064 168.467 310.352 167.244C310.434 167.176 310.271 167.502 310.556 167.013C310.841 166.524 309.863 164.472 307.851 163.289C297.305 157.105 271.877 157.269 259.524 159.688Z" fill="white" fill-opacity="0.1"/>
<path fill-rule="evenodd" clip-rule="evenodd" d="M31.8833 264.132C23.8241 264.132 17.3007 270.655 17.3007 278.714C17.3007 286.774 23.8241 293.297 31.8833 293.297C39.9425 293.297 46.4659 286.774 46.4659 278.714C46.4659 270.655 39.9425 264.132 31.8833 264.132ZM59.5671 252.485C60.369 254.211 61.0077 256.141 61.497 258.233C62.6114 261.726 60.967 262.46 57.1616 261.033C54.362 259.361 51.5623 257.676 48.7627 256.005C47.3357 254.999 46.6562 254.007 46.8872 253.028C47.3493 251.098 51.0731 250.093 54.1309 249.495C58.0178 248.72 57.746 248.557 59.5671 252.485ZM134.573 271.933C130.836 271.933 127.791 274.963 127.791 278.714C127.791 282.452 130.822 285.496 134.573 285.496C138.31 285.496 141.355 282.465 141.355 278.714C141.355 274.963 138.324 271.933 134.573 271.933ZM31.8833 271.933C28.1459 271.933 25.1016 274.963 25.1016 278.714C25.1016 282.452 28.1323 285.496 31.8833 285.496C35.6207 285.496 38.665 282.465 38.665 278.714C38.665 274.963 35.6343 271.933 31.8833 271.933ZM104.293 262.678C100.529 258.641 96.1799 256.018 91.1514 253.49C80.1431 247.945 73.4023 248.625 61.7144 248.625L65.6421 258.818C67.2865 260.992 69.1484 262.528 71.9753 262.678H104.293ZM134.573 264.132C126.514 264.132 119.99 270.655 119.99 278.714C119.99 286.774 126.514 293.297 134.573 293.297C142.632 293.297 149.156 286.774 149.156 278.714C149.156 270.655 142.632 264.132 134.573 264.132ZM111.524 259.688C106.74 256.711 101.535 254.048 95.7722 251.778C78.2269 244.86 64.8131 243.624 46.4115 249.196C40.8666 251.302 35.3217 253.409 29.7768 254.714C24.2998 256.018 0.5844 257.269 8.61555e-06 261.251L5.85751 268.25C3.7238 270.098 1.98422 272.368 1.34546 275.915C1.52214 278.103 2.12013 279.938 3.153 281.405C4.90618 283.92 10.0434 286.515 12.8158 285.034C13.6992 284.558 14.2021 283.607 14.1885 281.99C14.1069 249.508 53.3155 253.205 50.3664 285.822H118.781C106.115 253.151 160.15 253.028 150.556 284.694C153.926 288.336 161.876 282.846 167 271.172C165.6 269.785 164.064 268.467 162.352 267.244C162.434 267.176 162.271 267.502 162.556 267.013C162.841 266.524 161.863 264.472 159.851 263.289C149.305 257.105 123.877 257.269 111.524 259.688Z" fill="white" fill-opacity="0.1"/>
</svg>
