<svg width="45" height="40" viewBox="0 0 45 40" fill="none" xmlns="http://www.w3.org/2000/svg">
<path d="M22.725 33.8965L22.5 34.1144L22.2525 33.8965C11.565 24.5014 4.5 18.2888 4.5 11.9891C4.5 7.62943 7.875 4.35967 12.375 4.35967C15.84 4.35967 19.215 6.53951 20.4075 9.50409H24.5925C25.785 6.53951 29.16 4.35967 32.625 4.35967C37.125 4.35967 40.5 7.62943 40.5 11.9891C40.5 18.2888 33.435 24.5014 22.725 33.8965ZM32.625 0C28.71 0 24.9525 1.76567 22.5 4.53406C20.0475 1.76567 16.29 0 12.375 0C5.445 0 0 5.25341 0 11.9891C0 20.2071 7.65 26.9428 19.2375 37.1226L22.5 40L25.7625 37.1226C37.35 26.9428 45 20.2071 45 11.9891C45 5.25341 39.555 0 32.625 0Z" fill="white"/>
</svg>
