<svg width="263" height="251" viewBox="0 0 263 251" fill="none" xmlns="http://www.w3.org/2000/svg">
<path d="M18.9174 26.7653C8.4695 26.7653 0 35.324 0 45.8839C0 56.4406 8.4695 65 18.9174 65C26.5458 65 33.1051 60.4261 36.0969 53.851L40.5914 57.353C40.5914 57.353 73.6187 57.5913 75.4329 56.5555C75.4329 56.5555 71.3343 45.2449 76.5367 40.464C77.0844 39.9605 77.7727 39.3864 78.5296 38.7782C77.6575 40.9745 77.1674 43.3678 77.1674 45.8822C77.1674 56.4408 85.6361 64.998 96.084 64.998C106.532 64.998 115 56.4371 115 45.8822C115 35.3223 106.53 26.7656 96.084 26.7656C95.9125 26.7656 95.7488 26.7875 95.5779 26.7909C96.9444 25.8947 97.8163 25.332 97.8163 25.332L96.3977 24.0566C96.3977 24.0566 100.497 23.1022 99.5525 21.03C98.6053 18.9579 88.6745 6.53256 88.6745 6.53256C88.6745 6.53256 90.4336 2.70845 86.7953 0L85.048 3.82362C85.048 3.82362 80.5942 0.716913 78.8213 1.31517C77.0477 1.91168 74.3892 2.21144 73.5586 3.52511L72.732 4.30222C72.732 4.30222 72.4981 5.67734 73.8547 7.70843C73.8547 7.70843 87.5124 11.9497 88.1615 15.0559C88.1615 15.0559 89.1088 17.0293 85.0284 17.5047L84.2027 18.5813L82.0128 18.7004L78.054 9.55917C78.054 9.55917 74.2678 10.5746 72.3187 12.1271L72.6143 13.6793C72.6143 13.6793 56.7124 2.74825 41.7548 18.9372C41.7548 18.9372 30.6998 22.1626 22.9552 12.2465C22.9552 12.2465 22.8373 9.02061 4.15647 9.61837L5.45769 10.9925C5.45769 10.9925 4.15647 11.1116 3.62525 11.948C3.09403 12.7833 3.92065 13.6795 8.1778 13.6795C8.1778 13.6795 17.8158 24.7909 25.2049 24.1352L35.7267 29.2735L40.3977 37.3382C40.3977 37.3382 40.406 38.031 40.4543 39.0907C39.3702 39.324 38.1549 39.5829 36.8655 39.8593C34.3657 32.2556 27.2828 26.7653 18.9174 26.7653ZM96.0838 32.6235C103.32 32.6235 109.204 38.5717 109.204 45.8819C109.204 53.1928 103.318 59.1391 96.0838 59.1391C88.8481 59.1391 82.9648 53.1908 82.9648 45.8819C82.9648 38.5717 88.8483 32.6235 96.0838 32.6235ZM18.9174 59.1413C11.6834 59.1413 5.79715 53.1928 5.79715 45.8839C5.79715 38.5717 11.6834 32.6255 18.9174 32.6255C24.4788 32.6255 29.2307 36.1464 31.136 41.0929C24.1794 42.5881 17.2745 44.0755 17.2745 44.0755L18.1654 49.0339L31.7878 48.4259C30.6141 54.5227 25.2921 59.1413 18.9174 59.1413ZM41.6391 47.9851C42.0258 49.312 42.5299 50.3667 43.1928 50.8195L37.1136 51.0598C37.374 50.1187 37.5707 49.1528 37.6891 48.1588L41.6391 47.9851Z" fill="white" fill-opacity="0.1"/>
<path d="M166.917 112.765C156.47 112.765 148 121.324 148 131.884C148 142.441 156.47 151 166.917 151C174.546 151 181.105 146.426 184.097 139.851L188.591 143.353C188.591 143.353 221.619 143.591 223.433 142.556C223.433 142.556 219.334 131.245 224.537 126.464C225.084 125.961 225.773 125.386 226.53 124.778C225.657 126.974 225.167 129.368 225.167 131.882C225.167 142.441 233.636 150.998 244.084 150.998C254.532 150.998 263 142.437 263 131.882C263 121.322 254.53 112.766 244.084 112.766C243.912 112.766 243.749 112.787 243.578 112.791C244.944 111.895 245.816 111.332 245.816 111.332L244.398 110.057C244.398 110.057 248.497 109.102 247.552 107.03C246.605 104.958 236.675 92.5326 236.675 92.5326C236.675 92.5326 238.434 88.7084 234.795 86L233.048 89.8236C233.048 89.8236 228.594 86.7169 226.821 87.3152C225.048 87.9117 222.389 88.2114 221.559 89.5251L220.732 90.3022C220.732 90.3022 220.498 91.6773 221.855 93.7084C221.855 93.7084 235.512 97.9497 236.162 101.056C236.162 101.056 237.109 103.029 233.028 103.505L232.203 104.581L230.013 104.7L226.054 95.5592C226.054 95.5592 222.268 96.5746 220.319 98.1271L220.614 99.6793C220.614 99.6793 204.712 88.7482 189.755 104.937C189.755 104.937 178.7 108.163 170.955 98.2465C170.955 98.2465 170.837 95.0206 152.156 95.6184L153.458 96.9925C153.458 96.9925 152.156 97.1116 151.625 97.948C151.094 98.7833 151.921 99.6795 156.178 99.6795C156.178 99.6795 165.816 110.791 173.205 110.135L183.727 115.274L188.398 123.338C188.398 123.338 188.406 124.031 188.454 125.091C187.37 125.324 186.155 125.583 184.865 125.859C182.366 118.256 175.283 112.765 166.917 112.765ZM244.084 118.624C251.32 118.624 257.204 124.572 257.204 131.882C257.204 139.193 251.318 145.139 244.084 145.139C236.848 145.139 230.965 139.191 230.965 131.882C230.965 124.572 236.848 118.624 244.084 118.624ZM166.917 145.141C159.683 145.141 153.797 139.193 153.797 131.884C153.797 124.572 159.683 118.625 166.917 118.625C172.479 118.625 177.231 122.146 179.136 127.093C172.179 128.588 165.275 130.075 165.275 130.075L166.165 135.034L179.788 134.426C178.614 140.523 173.292 145.141 166.917 145.141ZM189.639 133.985C190.026 135.312 190.53 136.367 191.193 136.819L185.114 137.06C185.374 136.119 185.571 135.153 185.689 134.159L189.639 133.985Z" fill="white" fill-opacity="0.1"/>
<path d="M18.9174 212.765C8.4695 212.765 0 221.324 0 231.884C0 242.441 8.4695 251 18.9174 251C26.5458 251 33.1051 246.426 36.0969 239.851L40.5914 243.353C40.5914 243.353 73.6187 243.591 75.4329 242.556C75.4329 242.556 71.3343 231.245 76.5367 226.464C77.0844 225.961 77.7727 225.386 78.5296 224.778C77.6575 226.974 77.1674 229.368 77.1674 231.882C77.1674 242.441 85.6361 250.998 96.084 250.998C106.532 250.998 115 242.437 115 231.882C115 221.322 106.53 212.766 96.084 212.766C95.9125 212.766 95.7488 212.787 95.5779 212.791C96.9444 211.895 97.8163 211.332 97.8163 211.332L96.3977 210.057C96.3977 210.057 100.497 209.102 99.5525 207.03C98.6053 204.958 88.6745 192.533 88.6745 192.533C88.6745 192.533 90.4336 188.708 86.7953 186L85.048 189.824C85.048 189.824 80.5942 186.717 78.8213 187.315C77.0477 187.912 74.3892 188.211 73.5586 189.525L72.732 190.302C72.732 190.302 72.4981 191.677 73.8547 193.708C73.8547 193.708 87.5124 197.95 88.1615 201.056C88.1615 201.056 89.1088 203.029 85.0284 203.505L84.2027 204.581L82.0128 204.7L78.054 195.559C78.054 195.559 74.2678 196.575 72.3187 198.127L72.6143 199.679C72.6143 199.679 56.7124 188.748 41.7548 204.937C41.7548 204.937 30.6998 208.163 22.9552 198.246C22.9552 198.246 22.8373 195.021 4.15647 195.618L5.45769 196.992C5.45769 196.992 4.15647 197.112 3.62525 197.948C3.09403 198.783 3.92065 199.68 8.1778 199.68C8.1778 199.68 17.8158 210.791 25.2049 210.135L35.7267 215.274L40.3977 223.338C40.3977 223.338 40.406 224.031 40.4543 225.091C39.3702 225.324 38.1549 225.583 36.8655 225.859C34.3657 218.256 27.2828 212.765 18.9174 212.765ZM96.0838 218.624C103.32 218.624 109.204 224.572 109.204 231.882C109.204 239.193 103.318 245.139 96.0838 245.139C88.8481 245.139 82.9648 239.191 82.9648 231.882C82.9648 224.572 88.8483 218.624 96.0838 218.624ZM18.9174 245.141C11.6834 245.141 5.79715 239.193 5.79715 231.884C5.79715 224.572 11.6834 218.625 18.9174 218.625C24.4788 218.625 29.2307 222.146 31.136 227.093C24.1794 228.588 17.2745 230.075 17.2745 230.075L18.1654 235.034L31.7878 234.426C30.6141 240.523 25.2921 245.141 18.9174 245.141ZM41.6391 233.985C42.0258 235.312 42.5299 236.367 43.1928 236.819L37.1136 237.06C37.374 236.119 37.5707 235.153 37.6891 234.159L41.6391 233.985Z" fill="white" fill-opacity="0.1"/>
</svg>
