<svg width="294" height="248" viewBox="0 0 294 248" fill="none" xmlns="http://www.w3.org/2000/svg">
<path d="M293.9 119.617L287.411 97.8998C286.463 94.7286 283.611 92.598 280.313 92.598H266.408C265.102 92.598 264.043 93.6608 264.043 94.9724V100.196H258.683V87.691C258.683 86.2071 257.48 85 256.002 85H150.68C149.202 85 148 86.2071 148 87.691V130.113C148 131.597 149.202 132.804 150.68 132.804H153.045V138.028C153.045 139.339 154.104 140.402 155.41 140.402H173.513C174.577 144.758 178.498 148 183.16 148C186.189 148 188.904 146.63 190.728 144.476C192.551 146.63 195.266 148 198.296 148C202.958 148 206.878 144.758 207.942 140.402H231.862C232.697 141.911 234.299 142.935 236.136 142.935H248.75C250.587 142.935 252.189 141.911 253.024 140.402H259.285C260.349 144.758 264.269 148 268.932 148C273.594 148 277.514 144.758 278.578 140.402H291.635C292.941 140.402 294 139.339 294 138.028V120.299C294 120.068 293.967 119.838 293.9 119.617ZM288.456 117.925H281.544C278.675 117.925 276.341 115.581 276.341 112.701V104.945H284.578L288.456 117.925ZM259.284 135.653H253.637V132.962C253.637 132.909 253.631 132.857 253.629 132.804H256.317H260.474C259.939 133.674 259.534 134.633 259.284 135.653ZM264.043 104.945V128.055H258.683V104.945H264.043ZM152.73 117.608H240.517L239.509 118.62C238.586 119.547 238.586 121.051 239.509 121.978C239.971 122.441 240.576 122.673 241.181 122.673C241.787 122.673 242.392 122.441 242.854 121.978L247.899 116.913C248.823 115.985 248.823 114.482 247.899 113.555L242.854 108.489C241.93 107.562 240.433 107.562 239.509 108.489C238.586 109.417 238.586 110.92 239.509 111.847L240.517 112.859H152.73V89.7484H253.952V128.055H152.73V117.608ZM231.248 132.962V135.653H207.942C207.693 134.633 207.288 133.674 206.753 132.804H231.257C231.255 132.857 231.248 132.909 231.248 132.962ZM157.775 132.804H174.703C174.167 133.674 173.763 134.633 173.513 135.653H157.775V132.804ZM183.16 143.251C180.291 143.251 177.957 140.908 177.957 138.028C177.957 135.147 180.291 132.804 183.16 132.804C186.029 132.804 188.363 135.147 188.363 138.028C188.363 140.908 186.029 143.251 183.16 143.251ZM198.296 143.251C195.427 143.251 193.093 140.908 193.093 138.028C193.093 135.147 195.427 132.804 198.296 132.804C201.165 132.804 203.499 135.147 203.499 138.028C203.499 140.908 201.165 143.251 198.296 143.251ZM248.749 138.186H236.136C236.049 138.186 235.978 138.115 235.978 138.028V132.962C235.978 132.875 236.049 132.804 236.136 132.804H248.749C248.836 132.804 248.907 132.875 248.907 132.962V138.028C248.907 138.115 248.836 138.186 248.749 138.186ZM268.931 143.251C266.062 143.251 263.728 140.908 263.728 138.028C263.728 135.147 266.062 132.804 268.931 132.804C271.8 132.804 274.134 135.147 274.134 138.028C274.134 140.908 271.8 143.251 268.931 143.251ZM278.577 135.653C277.513 131.297 273.593 128.055 268.931 128.055C268.878 128.055 268.826 128.058 268.773 128.059V97.3467H280.313C281.506 97.3467 282.538 98.1176 282.881 99.2646L283.159 100.196H273.976C272.67 100.196 271.611 101.259 271.611 102.57V112.701C271.611 118.2 276.067 122.673 281.544 122.673H289.27V125.523H286.59C285.284 125.523 284.225 126.585 284.225 127.897C284.225 129.209 285.284 130.271 286.59 130.271H289.27V135.653H278.577Z" fill="white" fill-opacity="0.1"/>
<path d="M145.9 219.617L139.411 197.9C138.463 194.729 135.611 192.598 132.313 192.598H118.408C117.102 192.598 116.043 193.661 116.043 194.972V200.196H110.683V187.691C110.683 186.207 109.48 185 108.002 185H2.68035C1.20237 185 0 186.207 0 187.691V230.113C0 231.597 1.20237 232.804 2.68035 232.804H5.04536V238.028C5.04536 239.339 6.10425 240.402 7.41037 240.402H25.5134C26.5774 244.758 30.4976 248 35.1598 248C38.1892 248 40.9043 246.63 42.7279 244.476C44.5514 246.63 47.2665 248 50.2959 248C54.9581 248 58.878 244.758 59.9423 240.402H83.862C84.6967 241.911 86.2989 242.935 88.1364 242.935H100.75C102.587 242.935 104.189 241.911 105.024 240.402H111.285C112.349 244.758 116.269 248 120.932 248C125.594 248 129.514 244.758 130.578 240.402H143.635C144.941 240.402 146 239.339 146 238.028V220.299C146 220.068 145.967 219.838 145.9 219.617ZM140.456 217.925H133.544C130.675 217.925 128.341 215.581 128.341 212.701V204.945H136.578L140.456 217.925ZM111.284 235.653H105.637V232.962C105.637 232.909 105.631 232.857 105.629 232.804H108.317H112.474C111.939 233.674 111.534 234.633 111.284 235.653ZM116.043 204.945V228.055H110.683V204.945H116.043ZM4.73002 217.608H92.517L91.5092 218.62C90.5856 219.547 90.5856 221.051 91.5092 221.978C91.9709 222.441 92.5763 222.673 93.1814 222.673C93.7866 222.673 94.392 222.441 94.8536 221.978L99.899 216.913C100.823 215.985 100.823 214.482 99.899 213.555L94.8536 208.489C93.93 207.562 92.4325 207.562 91.5092 208.489C90.5856 209.417 90.5856 210.92 91.5092 211.847L92.517 212.859H4.73002V189.748H105.952V228.055H4.73002V217.608ZM83.2484 232.962V235.653H59.9423C59.6932 234.633 59.2883 233.674 58.7529 232.804H83.2566C83.2547 232.857 83.2484 232.909 83.2484 232.962ZM9.77538 232.804H26.7029C26.1674 233.674 25.7625 234.633 25.5134 235.653H9.77538V232.804ZM35.1598 243.251C32.2909 243.251 29.9568 240.908 29.9568 238.028C29.9568 235.147 32.2909 232.804 35.1598 232.804C38.0287 232.804 40.3629 235.147 40.3629 238.028C40.3629 240.908 38.0287 243.251 35.1598 243.251ZM50.2959 243.251C47.427 243.251 45.0929 240.908 45.0929 238.028C45.0929 235.147 47.427 232.804 50.2959 232.804C53.1648 232.804 55.4989 235.147 55.4989 238.028C55.4989 240.908 53.1648 243.251 50.2959 243.251ZM100.749 238.186H88.1361C88.049 238.186 87.9784 238.115 87.9784 238.028V232.962C87.9784 232.875 88.049 232.804 88.1361 232.804H100.749C100.836 232.804 100.907 232.875 100.907 232.962V238.028C100.907 238.115 100.836 238.186 100.749 238.186ZM120.931 243.251C118.062 243.251 115.728 240.908 115.728 238.028C115.728 235.147 118.062 232.804 120.931 232.804C123.8 232.804 126.134 235.147 126.134 238.028C126.134 240.908 123.8 243.251 120.931 243.251ZM130.577 235.653C129.513 231.297 125.593 228.055 120.931 228.055C120.878 228.055 120.826 228.058 120.773 228.059V197.347H132.313C133.506 197.347 134.538 198.118 134.881 199.265L135.159 200.196H125.976C124.67 200.196 123.611 201.259 123.611 202.57V212.701C123.611 218.2 128.067 222.673 133.544 222.673H141.27V225.523H138.59C137.284 225.523 136.225 226.585 136.225 227.897C136.225 229.209 137.284 230.271 138.59 230.271H141.27V235.653H130.577Z" fill="white" fill-opacity="0.1"/>
<path d="M145.9 34.6168L139.411 12.8998C138.463 9.72859 135.611 7.59799 132.313 7.59799H118.408C117.102 7.59799 116.043 8.66076 116.043 9.97236V15.196H110.683V2.69095C110.683 1.20713 109.48 0 108.002 0H2.68035C1.20237 0 0 1.20713 0 2.69095V45.1131C0 46.5969 1.20237 47.804 2.68035 47.804H5.04536V53.0276C5.04536 54.3392 6.10425 55.402 7.41037 55.402H25.5134C26.5774 59.7579 30.4976 63 35.1598 63C38.1892 63 40.9043 61.6298 42.7279 59.4761C44.5514 61.6298 47.2665 63 50.2959 63C54.9581 63 58.878 59.7579 59.9423 55.402H83.862C84.6967 56.9105 86.2989 57.9347 88.1364 57.9347H100.75C102.587 57.9347 104.189 56.9105 105.024 55.402H111.285C112.349 59.7579 116.269 63 120.932 63C125.594 63 129.514 59.7579 130.578 55.402H143.635C144.941 55.402 146 54.3392 146 53.0276V35.299C146 35.0682 145.967 34.8381 145.9 34.6168ZM140.456 32.9246H133.544C130.675 32.9246 128.341 30.5813 128.341 27.701V19.9447H136.578L140.456 32.9246ZM111.284 50.6533H105.637V47.9623C105.637 47.9088 105.631 47.8569 105.629 47.804H108.317H112.474C111.939 48.6743 111.534 49.6332 111.284 50.6533ZM116.043 19.9447V43.0553H110.683V19.9447H116.043ZM4.73002 32.608H92.517L91.5092 33.6198C90.5856 34.5474 90.5856 36.0506 91.5092 36.9778C91.9709 37.4413 92.5763 37.673 93.1814 37.673C93.7866 37.673 94.392 37.4413 94.8536 36.9778L99.899 31.9125C100.823 30.9849 100.823 29.4818 99.899 28.5545L94.8536 23.4892C93.93 22.5622 92.4325 22.5622 91.5092 23.4892C90.5856 24.4168 90.5856 25.9199 91.5092 26.8472L92.517 27.859H4.73002V4.74842H105.952V43.055H4.73002V32.608ZM83.2484 47.9623V50.6533H59.9423C59.6932 49.6332 59.2883 48.6743 58.7529 47.804H83.2566C83.2547 47.8569 83.2484 47.9088 83.2484 47.9623ZM9.77538 47.804H26.7029C26.1674 48.6743 25.7625 49.6332 25.5134 50.6533H9.77538V47.804ZM35.1598 58.2513C32.2909 58.2513 29.9568 55.9079 29.9568 53.0276C29.9568 50.1474 32.2909 47.804 35.1598 47.804C38.0287 47.804 40.3629 50.1474 40.3629 53.0276C40.3629 55.9079 38.0287 58.2513 35.1598 58.2513ZM50.2959 58.2513C47.427 58.2513 45.0929 55.9079 45.0929 53.0276C45.0929 50.1474 47.427 47.804 50.2959 47.804C53.1648 47.804 55.4989 50.1474 55.4989 53.0276C55.4989 55.9079 53.1648 58.2513 50.2959 58.2513ZM100.749 53.1859H88.1361C88.049 53.1859 87.9784 53.1147 87.9784 53.0276V47.9623C87.9784 47.8753 88.049 47.804 88.1361 47.804H100.749C100.836 47.804 100.907 47.8753 100.907 47.9623V53.0276C100.907 53.1147 100.836 53.1859 100.749 53.1859ZM120.931 58.2513C118.062 58.2513 115.728 55.9079 115.728 53.0276C115.728 50.1474 118.062 47.804 120.931 47.804C123.8 47.804 126.134 50.1474 126.134 53.0276C126.134 55.9079 123.8 58.2513 120.931 58.2513ZM130.577 50.6533C129.513 46.2974 125.593 43.0553 120.931 43.0553C120.878 43.0553 120.826 43.0584 120.773 43.0594V12.3467H132.313C133.506 12.3467 134.538 13.1176 134.881 14.2646L135.159 15.196H125.976C124.67 15.196 123.611 16.2587 123.611 17.5704V27.701C123.611 33.1997 128.067 37.6734 133.544 37.6734H141.27V40.5226H138.59C137.284 40.5226 136.225 41.5854 136.225 42.897C136.225 44.2086 137.284 45.2714 138.59 45.2714H141.27V50.6533H130.577Z" fill="white" fill-opacity="0.1"/>
</svg>
